<?xml version="1.0" standalone="no"?>
<!DOCTYPE svg PUBLIC "-//W3C//DTD SVG 20010904//EN"
 "http://www.w3.org/TR/2001/REC-SVG-20010904/DTD/svg10.dtd">
<svg version="1.0" xmlns="http://www.w3.org/2000/svg"
 width="512.000000pt" height="512.000000pt" viewBox="0 0 512.000000 512.000000"
 preserveAspectRatio="xMidYMid meet">

<g transform="translate(0.000000,512.000000) scale(0.100000,-0.100000)"
fill="#000000" stroke="none">
<path d="M2215 5094 c-214 -29 -442 -92 -652 -180 -826 -346 -1421 -1126
-1538 -2017 -20 -158 -20 -516 0 -674 50 -376 192 -756 403 -1073 414 -623
1056 -1024 1802 -1126 169 -23 491 -23 660 0 390 53 762 192 1080 404 623 414
1024 1056 1126 1802 23 169 23 491 0 660 -102 746 -503 1388 -1126 1802 -317
211 -697 353 -1073 403 -148 19 -539 19 -682 -1z m956 -1038 c43 -30 69 -80
69 -133 0 -28 -155 -444 -525 -1412 -289 -755 -532 -1385 -541 -1399 -27 -45
-63 -66 -126 -70 -50 -4 -64 -1 -97 21 -45 30 -71 79 -71 134 0 28 155 444
526 1414 289 756 532 1385 541 1399 32 50 70 68 138 69 38 1 59 -5 86 -23z
m-1374 -713 c51 -24 85 -81 85 -143 0 -93 -5 -97 -466 -380 -228 -140 -416
-257 -416 -260 0 -3 188 -120 416 -260 461 -283 466 -287 466 -380 0 -93 -68
-160 -164 -160 -41 0 -83 23 -484 271 -241 149 -451 282 -465 295 -69 65 -106
191 -88 292 12 65 49 139 88 176 14 13 224 146 465 295 401 248 443 271 484
271 24 0 60 -7 79 -17z m2089 -254 c241 -149 451 -282 465 -295 39 -37 76
-111 88 -176 19 -105 -22 -233 -94 -296 -16 -15 -223 -146 -459 -291 -370
-228 -435 -265 -476 -269 -97 -9 -172 60 -172 158 0 93 5 97 466 380 228 140
416 257 416 260 0 3 -163 105 -363 228 -524 322 -485 295 -509 348 -49 111 26
224 148 224 49 0 66 -10 490 -271z"/>
</g>
</svg>
